<?xml version="1.0" encoding="utf-8"?>
<!-- Generator: Adobe Illustrator 16.0.3, SVG Export Plug-In . SVG Version: 6.00 Build 0)  -->
<!DOCTYPE svg PUBLIC "-//W3C//DTD SVG 1.1//EN" "http://www.w3.org/Graphics/SVG/1.1/DTD/svg11.dtd">
<svg version="1.1" id="Ebene_1" xmlns="http://www.w3.org/2000/svg" xmlns:xlink="http://www.w3.org/1999/xlink" x="0px" y="0px"
	 width="200px" height="200px" viewBox="0 0 200 200" enable-background="new 0 0 200 200" xml:space="preserve">
<title>Artboard 33</title>
<path fill="#F7D666" d="M175.328,63.796c-0.001-3.089-1.581-5.965-4.189-7.623L104.852,13.99c-2.961-1.883-6.743-1.883-9.704,0
	L28.86,56.173c-2.608,1.658-4.187,4.533-4.188,7.623v114.498c0.002,4.994,4.052,9.037,9.043,9.037
	c1.717-0.001,3.398-0.492,4.847-1.412L100,146.839l61.438,39.169c4.213,2.681,9.8,1.438,12.478-2.773
	c0.938-1.475,1.429-3.19,1.412-4.94V63.796z M100,32.34l57.251,36.428v35.796l-52.399-33.326c-2.961-1.882-6.743-1.882-9.704,0
	L42.75,104.564V68.768L100,32.34z M104.852,128.488c-2.961-1.883-6.743-1.883-9.704,0L42.75,161.813v-35.795L100,89.589
	l57.251,36.429v35.795L104.852,128.488z"/>
</svg>
